<?xml version="1.0" encoding="UTF-8"?>
<svg id="Layer_1" data-name="Layer 1" xmlns="http://www.w3.org/2000/svg" viewBox="0 0 1447 471">
  <g>
    <path d="m399.13,136.95l44.32,91.56,42.54-91.16h36.47l-59.92,117.72v86.11h-36.36v-84.65l-65.29-119.57h38.25Z" fill="#055153"/>
    <path d="m551.99,216.95c-26.18,0-39.27,22.11-42.47,29.67l-1.45-1.45c2.33-6.11,17.75-41.02,58.76-41.02,29.67,0,55.85,15.42,55.85,55.27v81.75h-35.78v-59.78c-5.09,24.14-21.67,61.82-53.96,61.82-19.2,0-31.56-13.67-31.56-32.29,0-29.09,24.73-63.94,81.75-63.94h3.78v-.45c0-22.11-13.67-29.57-34.91-29.57Zm-2.04,97.16c25.6,0,36.95-41.02,36.95-49.45v-.58h-4.65c-38.69,0-51.2,17.02-51.2,32.29,0,9.31,6.54,17.75,18.91,17.75Z" fill="#055153"/>
    <path d="m666.99,135.78h15.9v205.38h-35.78v-185.5c0-10.98,8.9-19.88,19.88-19.88Z" fill="#055153"/>
    <path d="m728.66,135.78h15.9v205.38h-35.78v-185.5c0-10.98,8.9-19.88,19.88-19.88Z" fill="#055153"/>
    <path d="m811.61,216.95c-26.18,0-39.27,22.11-42.47,29.67l-1.45-1.45c2.33-6.11,17.75-41.02,58.76-41.02,29.67,0,55.85,15.42,55.85,55.27v81.75h-35.78v-59.78c-5.09,24.14-21.67,61.82-53.96,61.82-19.2,0-31.56-13.67-31.56-32.29,0-29.09,24.73-63.94,81.75-63.94h3.78v-.45c0-22.11-13.67-29.57-34.91-29.57Zm-2.04,97.16c25.6,0,36.95-41.02,36.95-49.45v-.58h-4.65c-38.69,0-51.2,17.02-51.2,32.29,0,9.31,6.54,17.75,18.91,17.75Z" fill="#055153"/>
    <path d="m1021.05,162.29v67.17c11.27-3.5,27.97-7.29,48.38-7.03,18.49.23,33.72,3.71,44.42,7.03v-67.13c0-14.02,11.36-25.38,25.38-25.38h10.98v204.22h-36.36v-75.5c-10.86-3.24-26.07-6.55-44.42-6.77-20.25-.25-36.91,3.35-48.38,6.77v75.5h-36.36v-204.22h11.02c13.99,0,25.34,11.34,25.34,25.34Z" fill="#055153"/>
    <path d="m1222.5,216.95c-26.18,0-39.27,22.11-42.47,29.67l-1.45-1.45c2.33-6.11,17.75-41.02,58.76-41.02,29.67,0,55.85,15.42,55.85,55.27v81.75h-35.78v-59.78c-5.09,24.14-21.67,61.82-53.96,61.82-19.2,0-31.56-13.67-31.56-32.29,0-29.09,24.73-63.94,81.75-63.94h3.78v-.45c0-22.11-13.67-29.57-34.91-29.57Zm-2.04,97.16c25.6,0,36.95-41.02,36.95-49.45v-.58h-4.65c-38.69,0-51.2,17.02-51.2,32.29,0,9.31,6.54,17.75,18.91,17.75Z" fill="#055153"/>
    <path d="m1316.45,410.98c-22.98,0-37.24-21.53-40.15-50.62l15.71-4.07c2.18,25.89,7.85,48.15,18.04,48.15,6.4,0,8.44-11.05,8.44-30.98v-166.69h35.78v142.4c0,53.53-22.4,61.82-37.82,61.82Zm41.24-240.9l-23.63-23.63-23.63,23.63,23.63,23.63,23.63-23.63Z" fill="#055153"/>
    <path d="m1381.46,341.17v-134.4h35.78v134.4h-35.78Zm40.04-171.08l-23.63-23.63-23.63,23.63,23.63,23.63,23.63-23.63Z" fill="#055153"/>
  </g>
  <g>
    <g>
      <path d="m218.81,233.25v179.59c-23.98-.38-25.96.28-38.04,0v-29.14c-12.14-2.32-24.71-3.56-37.59-3.56s-25.2,1.21-37.23,3.49v29.2c-12.08.28-14.06-.38-38.04,0v-179.59c6.17,1.57,16.25,5.2,24.21,14.37,7.38,8.5,13.83,21.55,13.83,35.92v70.63c3.59-.67,7.22-1.26,10.88-1.72,8.43-1.12,17.05-1.69,25.82-1.69s18.1.6,26.87,1.83c3.79.5,7.54,1.13,11.25,1.85v-70.9c0-14.37,6.45-27.41,13.83-35.92,7.96-9.17,18.04-12.8,24.21-14.37Z" fill="#055153"/>
      <path d="m133.62,332.15h19.11c0-36.5-10.26-113.03,65.71-133.7v-38.8s-.16,0-.44.03c-1.69.03-8,.42-16.56,3.04-6.77,2.09-14.96,5.58-23.33,11.43-12.51,8.74-25.5,22.74-34.94,45.18-25.09-59.68-75.27-59.68-75.27-59.68v38.8c74.56,20.68,65.71,97.2,65.71,133.7Z" fill="#055153"/>
      <rect x="128.41" y="135.18" width="29.53" height="29.53" transform="translate(-64.09 145.16) rotate(-45)" fill="#055153"/>
      <rect x="128.41" y="82.97" width="29.53" height="29.53" transform="translate(-27.17 129.87) rotate(-45)" fill="#055153"/>
    </g>
    <path d="m261.22,451.24H25.5v-3.32c0-41.43.01-74.76.02-106.37,0-28.52.01-55.65.01-86.07,0-5.21,0-10.02-.02-14.5-.08-41.8-.1-54.41,8.05-82.6,4.56-15.75,14.42-33.9,27.79-51.1,21.94-28.26,48.01-53.4,73.23-77.71l8.85-8.54,2.31,2.21c2.3,2.2,56.41,54.15,79.62,84.04,10.9,14.04,24.1,32.51,29.44,50.96,7.12,24.59,6.99,35.14,6.61,66.47-.1,8.15-.22,18.28-.22,30.78,0,29.16,0,52.49.01,77.95v16.51c.01,26.39.02,56.5.02,97.99v3.32Zm-229.08-6.64h222.44c0-48.53,0-81.31-.02-111.18v-11.54c0-21.18-.01-41.7-.01-66.41,0-12.45.12-22.65.22-30.85.37-30.6.49-40.91-6.35-64.56-5.02-17.36-17.76-35.16-28.3-48.73-20.46-26.35-65.09-69.91-76.67-81.11l-4.25,4.1c-25.04,24.15-50.94,49.13-72.6,77.01-12.86,16.56-22.33,33.92-26.65,48.88-7.9,27.29-7.87,39.68-7.79,80.75v1.18c.01,4.14.02,8.57.02,13.33,0,29.14,0,55.26-.02,82.48v3.6c-.01,30.76-.02,63.15-.02,103.05Z" fill="#055153"/>
  </g>
</svg>